# xmcd
#
# Track frame offsets:
#	150
#	10915
#	19768
#	43443
#	63120
#	82243
#	105872
#	118230
#	135284
#	146326
#
# Disc length: 2160 seconds
#
# Revision: 0
# Processed by: cddbd v1.5.2PL0 Copyright (c) Steve Scherf et al.
# Submitted via: audiograbber 1.83.01
#
DISCID=7f086e0a
DTITLE=Jimmy Ross - Full Circle
DYEAR=1900
DGENRE=
TTITLE0=Love Music
TTITLE1=Gotta Find My Way Back Home
TTITLE2=It's Gonna Take A Miracle - Im On The Outside Looking In
TTITLE3=I've Never Found Me A Girl (Who Loves Me Like You Do)
TTITLE4=Gonna Move Across The River
TTITLE5=The Whole Towns Laughing At Me
TTITLE6=Shame On You
TTITLE7=That's My World
TTITLE8=Let Me Be Your Man
TTITLE9=The Rapper
EXTD=
EXTT0=
EXTT1=
EXTT2=
EXTT3=
EXTT4=
EXTT5=
EXTT6=
EXTT7=
EXTT8=
EXTT9=
PLAYORDER=
